<svg width="1440" height="2400" viewBox="0 0 1440 2400" fill="none" xmlns="http://www.w3.org/2000/svg">
<g clip-path="url(#clip0_513_264)">
<path d="M-504.339 2179.23C-454.747 2046.9 -416.149 1909.94 -376.954 1774.25C-335.162 1629.63 -335.044 1477.47 -319.307 1329.7C-309.881 1240.66 -291.4 1154.84 -232.47 1084.06C-191.207 1034.54 -141.722 1001.19 -80.313 981.951C5.24084 955.141 98.3104 954.592 182.179 923.292C201.59 916.047 221.227 906.284 234.113 889.452C244.803 875.454 249.899 857.868 256.983 842.33C263.294 828.499 273.935 822.99 287.428 821.529C328.584 817.088 381.448 841.85 424.171 849.398C433.196 850.996 444.749 852.692 452.686 857.446C458.35 860.848 458.183 865.681 457.88 869.886C455.518 902.539 456.998 936.8 448.816 968.973C439.438 1005.85 416.038 1031.36 384.035 1047.39C329.162 1074.84 258.385 1076.88 196.044 1087.76C134.517 1098.55 72.5786 1110.31 13.5993 1131.43C-36.3259 1149.28 -83.1154 1174.57 -122.448 1210.44C-171.717 1255.43 -198.33 1317.57 -214.685 1380.31C-254.86 1534.62 -251.528 1700 -289.881 1856.59C-308.959 1934.51 -333.133 2011.78 -356.974 2088.35C-377.385 2153.92 -399.168 2220.06 -428.594 2281.64C-436.874 2298.98 -446.976 2322.32 -465.408 2331.64C-474.354 2336.16 -483.379 2335.33 -492.012 2333.71C-504.829 2331.28 -517.705 2325.55 -525.397 2314.74C-550.874 2278.98 -519.263 2214.44 -504.339 2179.28" fill="#137D9F"/>
<path d="M-406.444 2285.24C-376.035 2214.89 -352.178 2141.95 -329.705 2068.84C-314.942 2020.8 -300.757 1972.53 -286.494 1924.32C-264.727 1850.79 -251.622 1775.46 -240.959 1699.68C-229.384 1617.44 -220.045 1534.06 -203.467 1453.05C-184.652 1361.12 -154.42 1273.41 -79.1811 1211.71C-19.3433 1162.69 54.002 1135.72 128.171 1116.88C174.276 1105.19 221.028 1096.51 267.809 1088.27C311.442 1080.59 357.075 1076.59 398.275 1059.23C453.689 1035.89 479.939 990.084 506.915 940.131C516.911 921.62 533.4 908.855 551.371 899.384C594.445 876.677 644.944 866.53 693.609 858.51C699.965 857.461 706.557 856.432 713.375 855.657C726.949 854.128 740.622 853.656 754.27 854.245C755.251 854.245 756.232 854.314 757.213 854.383C766.787 855.098 778.146 855.687 786.583 861.128C791.566 864.344 791.409 869.599 790.506 874.785C772.918 972.514 748.689 1074.79 662.866 1132.3C611.856 1166.5 547.977 1171.11 487.806 1180.56C418.767 1191.35 349.493 1202.45 281.464 1217.2C197.985 1235.29 111.956 1258.03 37.2083 1301.46C-41.0615 1346.94 -83.0067 1415.53 -111.572 1498.63C-148.161 1605.08 -163.778 1718.73 -185.241 1829.74C-206.626 1940.36 -239.33 2047.52 -272.938 2154.74C-293.145 2219.21 -314.206 2284.79 -343.487 2344.77C-352.022 2362.25 -361.9 2379.62 -376.388 2393.28C-386.825 2403.18 -399.794 2412.98 -413.968 2416.33C-423.013 2418.44 -436.334 2415.56 -442.102 2407.59C-452.961 2392.61 -443.2 2369.5 -437.413 2354.35C-428.408 2330.82 -417.156 2308.03 -406.415 2285.24" fill="#0ABBAB"/>
<path d="M-337.09 2365.59C-305.944 2302.74 -282.866 2236.48 -261.543 2169.9C-246.838 2123.85 -232.838 2077.4 -218.662 2031.15C-195.712 1956.26 -180.193 1879.54 -164.89 1802.79C-148.165 1718.97 -130.509 1634.74 -104.637 1553.69C-89.4121 1506.01 -70.903 1458.42 -44.4333 1415.42C-17.3951 1371.52 23.1133 1339.89 67.8763 1315.4C159.05 1265.55 263.615 1241.47 364.709 1221.34C418.874 1210.56 473.372 1201.59 527.889 1192.82C578.731 1184.64 631.337 1180.08 678.158 1157.02C752.421 1120.53 795.145 1049.62 834.643 980.307C848.035 956.792 865.603 936.598 885.308 918.638C928.542 879.24 974.295 847.964 1029.97 827.829C1036.93 825.159 1044.05 822.95 1051.3 821.216C1063.95 818.492 1077.27 816.65 1090.33 819.256C1091.09 819.403 1091.84 819.589 1092.56 819.775C1102.06 822.293 1106.28 827.339 1108.49 834.59C1109.91 839.254 1108.18 845.554 1105.72 852.06C1060.63 971.361 1016.31 1106.37 910.836 1183.85C856.387 1223.85 790.958 1229.39 725.078 1238.89C643.277 1250.65 561.28 1262.47 480.185 1277.39C376.405 1296.48 269.242 1318.47 172.726 1363.22C126.649 1384.6 83.0621 1414 52.6514 1455.41C26.623 1490.87 6.87854 1531.67 -9.85614 1571.92C-52.933 1675.54 -79.0105 1785.83 -106.755 1894.89C-133.303 1999.32 -166.449 2101.24 -200.516 2203.27C-219.613 2260.47 -238.995 2318.78 -266.004 2371.8C-274.347 2388.19 -284.317 2404.01 -296.738 2418.01C-311.934 2435.14 -329.178 2454.66 -349.442 2463.78C-357.628 2467.45 -370.549 2472.99 -378.853 2468.04C-397.97 2456.68 -345.256 2380.91 -337.07 2365.49" fill="#B2CD0D"/>
<path d="M-262.539 2401.1C-229.882 2344.61 -206.359 2283.96 -184.944 2222.63C-169.248 2177.74 -154.406 2132.2 -139.594 2087.05C-114.775 2011.41 -96.8819 1933.19 -76.7229 1856.16C-53.9741 1769.21 -27.1445 1682.68 7.64087 1600.04C27.1034 1553.83 49.1459 1507.32 78.7222 1466.27C112.752 1419.04 161.556 1387.19 214.42 1364.53C326.251 1316.61 449.638 1294.77 568.974 1274.87C631.638 1264.43 694.538 1255.4 757.409 1246.44C805.948 1239.51 858.106 1236.95 903.79 1217.93C993.794 1180.44 1049.66 1092.41 1097.16 1012.18C1112.13 986.873 1128.47 962.388 1145.77 938.54C1178.47 893.433 1213.1 835.784 1264.67 810.563C1269.58 808.141 1274.82 805.729 1279.83 804.68C1290.41 802.375 1298.47 806.18 1302.5 812.348C1302.85 812.846 1303.18 813.363 1303.48 813.897C1307.46 821.693 1305.92 834.068 1304.31 842.079C1302.72 849.194 1300.31 856.104 1297.14 862.672C1235.58 994.071 1158.31 1137.29 1038.16 1219.87C984.397 1256.82 924.371 1263.39 859.685 1271.79C777.794 1282.43 695.5 1291.14 613.902 1302.65C509.164 1317.43 400.521 1334.13 302.355 1375.95C206.72 1416.71 149.401 1491.15 111.761 1584.76C71.3257 1685.33 50.3132 1793 22.7969 1898.1C-3.66 1998.9 -41.6923 2094.91 -79.5285 2191.7C-100.541 2245.43 -122.279 2300.14 -151.042 2349.23C-160.577 2365.31 -171.825 2380.31 -184.591 2393.96C-208.389 2419.7 -234.464 2444.83 -264.393 2463.21C-277.048 2470.99 -291.095 2479.68 -305.457 2483.52C-322.133 2487.98 -301.964 2459.9 -299.502 2456.22C-287.191 2437.84 -274.124 2420 -262.578 2401.1" fill="#EAE9F9"/>
<path d="M-152.449 2389.57C-112.624 2336.45 -80.8288 2278.69 -54.2002 2218.36C-35.1014 2175.06 -19.1301 2129.56 -2.11957 2085.79C26.4797 2012.27 40.5783 1932.29 57.2065 1854.52C75.9426 1766.89 96.2179 1677.99 128.258 1594.76C146.073 1548.52 166.495 1503.43 200.154 1465.81C236.802 1424.86 283.079 1396.96 334.238 1377.8C439.536 1338.46 554.414 1325.71 665.468 1313.56C723.676 1307.16 781.992 1301.71 840.191 1295.21C889.212 1289.73 942.724 1287.68 989.422 1270.7C1081.83 1237.16 1154.88 1155.15 1217.02 1082.61C1237.99 1058.1 1259.55 1034.02 1281.05 1010.07C1332.15 953.214 1379.69 876.498 1456.39 851.835C1464.24 849.306 1472.65 847.09 1481.02 847C1495.41 846.865 1513.02 852.953 1520.89 866.157C1521.43 867.031 1521.91 867.938 1522.34 868.872C1528.6 883.047 1522.49 898.388 1517.52 912.003C1514.49 920.296 1509.1 928.825 1503.9 935.922C1446.89 1013.71 1376.24 1084.83 1303.02 1148.75C1225.84 1216.2 1142.63 1279.81 1052.8 1327.67C1022.17 1343.98 989.775 1359.39 955.735 1368.09C924.037 1376.19 889.85 1377.5 857.309 1379.65C782.865 1384.55 708.038 1384.78 633.643 1387.49C539.903 1390.83 441.478 1394.85 352.141 1426.7C307.344 1442.67 266.029 1468.51 234.4 1504.31C205.154 1537.42 191.683 1581.35 183.731 1623.83C165.142 1722.98 173.015 1825.84 167.446 1926.61C164.672 1976.87 159.123 2027.38 145.749 2076.02C133.455 2120.75 112.63 2162.55 91.6883 2203.53C65.2166 2255.36 35.5977 2306.93 -0.550903 2351.67C-12.7117 2366.58 -26.4527 2380.13 -41.533 2392.07C-75.7011 2419.36 -112.722 2445.66 -154.008 2461.01C-168.931 2466.56 -185.49 2471.09 -200.765 2472.82C-222.933 2475.35 -202.922 2449.77 -198 2443.61C-183.294 2425.21 -167.068 2408.08 -152.449 2389.6" fill="#FE9572"/>
<path d="M-22.6924 2418.95C30.0843 2370.16 77.1244 2316.26 114.309 2255.46C138.727 2215.53 162.359 2171.61 174.813 2126.99C195.877 2051.51 190.503 1968.2 188.542 1888.94C186.375 1801.55 183.237 1712.71 197.661 1627.7C205.448 1581.82 222.589 1539.49 257.871 1506.87C290.996 1476.22 331.094 1455.64 374.3 1443.34C465.242 1417.46 563.146 1419.69 656.805 1420.74C707.12 1421.31 757.445 1422.42 807.76 1421.54C853.045 1420.75 901.331 1420.97 945.537 1410.07C1068.64 1379.69 1183.1 1300.12 1285.81 1229.4C1322.03 1204.45 1358.66 1179.65 1394.56 1154.33C1452.42 1113.52 1507.33 1068.22 1564.86 1026.66C1614.59 990.726 1668.56 958.448 1729.11 946.02C1742.18 943.334 1756.31 941.021 1769.14 942.423C1787.13 944.383 1813.81 950.96 1816.79 973.671C1816.97 974.969 1817.04 976.281 1816.98 977.591C1816 1000.01 1794.5 1020.28 1780.14 1035.1C1771.02 1044.37 1761.39 1053.13 1751.32 1061.36C1647.97 1147.08 1530.39 1219.47 1413.14 1286.8C1293.29 1355.51 1169.35 1420.39 1041.27 1470.36C969.944 1498.18 901.586 1517.15 824.323 1516.42C759.367 1515.79 694.607 1507.79 630.161 1501.72C550.271 1494.19 465.075 1485.95 386.773 1509.16C345.175 1521.49 306.421 1545.26 277.297 1577.55C247.879 1610.09 239.475 1654.89 239.828 1696.43C240.661 1795.16 275.463 1894.43 293.399 1993.13C301.901 2039.92 308.226 2087.85 304.705 2135.47C301.283 2181.74 284.622 2221.39 263.902 2261.92C235.729 2317.08 202.388 2370.86 162.193 2417.21C148.624 2432.8 133.386 2446.87 116.751 2459.15C72.6233 2491.81 21.8569 2520.75 -34.6166 2525.4C-52.454 2526.87 -73.3509 2526.07 -89.6389 2518.17C-135.747 2495.82 -39.2157 2433.57 -22.6924 2418.95Z" fill="#F75F68"/>
<path d="M108.997 2516.53C170.21 2463.75 227.304 2406.19 270.461 2338.65C296.492 2297.89 322.857 2251.18 330.125 2203.87C342.601 2122.71 316.305 2034.76 296.109 1953.99C274.325 1866.89 241.752 1771.65 250.991 1683.81C255.542 1640.35 272.57 1605.23 308.38 1576.89C339.948 1552.03 377.308 1535.57 416.967 1529.06C493.472 1516.23 573.086 1531.32 648.668 1543.76C727.949 1556.76 810.074 1572.56 890.688 1563.56C947.841 1557.19 1003.99 1534.63 1057.17 1513.93C1137.33 1482.72 1215.66 1446.66 1292.83 1409.03C1342.1 1385.03 1391.49 1360.62 1440.14 1335.34C1536.86 1285.1 1631.24 1229.92 1726.96 1177.45C1797.65 1138.7 1872.66 1096.52 1951.94 1079.82C1962.95 1077.5 1975.13 1075.82 1986.14 1078.04C2009.4 1082.76 2000.07 1112.82 1993.33 1125.29C1992.31 1127.08 1991.2 1128.81 1989.99 1130.47C1969.66 1159.38 1938.42 1181.45 1909.64 1200.83C1896.22 1209.89 1882.12 1218.67 1868.18 1227.19C1735.77 1308.15 1596.35 1379.8 1455.86 1446.92C1326.03 1508.96 1193.64 1569.14 1057.64 1615.37C990.271 1638.28 927.028 1655.94 855.329 1650.55C796.705 1646.14 738.993 1632.99 681.556 1621.61C609.68 1607.37 532.656 1592.02 459.663 1608.44C420.331 1617.27 382.413 1638 354.076 1666.75C322.592 1698.69 314.274 1742.1 316.128 1784.04C320.503 1882.67 364.591 1981.6 394.8 2078.3C409.768 2126.17 423.921 2175.3 428.149 2225.49C431.876 2269.33 424.147 2306.91 405.119 2345.73C378.791 2399.48 344.619 2449.01 303.721 2492.71C289.35 2507.87 274.017 2522.1 257.818 2535.3C206.079 2577.78 144.934 2615.17 79.0128 2631.46C62.3878 2635.56 40.0739 2639.22 24.0864 2631.41C-25.5239 2607.2 92.5581 2530.28 109.007 2516.53" fill="#7158D1"/>
<path d="M894.441 2735.64C953.107 2696.1 970.389 2640.15 981.606 2573.61C995.345 2492.32 1015.79 2412.67 1051.65 2338.85C1075.2 2290.28 1106.36 2229.39 1152.5 2197.54C1205.82 2160.74 1284.93 2178.83 1341.22 2195.04C1424.94 2219.16 1511.76 2257.12 1587.28 2303.08C1616.92 2321.12 1633.74 2330.81 1662.73 2309.75C1666.85 2306.81 1672.07 2302.6 1677.72 2305.55C1682.07 2307.82 1685.57 2313.83 1688.98 2319.44C1696.38 2331.85 1704.75 2343.66 1714 2354.77C1722.41 2364.76 1733 2377.39 1733 2391.3C1733 2400.44 1728.53 2406.87 1724.76 2411.67C1718.18 2420.04 1703.75 2444.94 1689.98 2439.32C1678.34 2434.56 1667.64 2424.49 1656.61 2417.19C1627.62 2397.95 1596.65 2381.1 1565.89 2365.64C1462.56 2313.7 1313.19 2251.06 1208.59 2334.56C1135.37 2393.03 1086.61 2470.29 1069.48 2561.25C1058.01 2622.18 1050.76 2682.94 1018.3 2736.91C1006.14 2757.12 989.84 2773.57 969.761 2784.74C949.27 2796.13 918.563 2800.96 896.571 2789.25C877.463 2779.04 877.562 2748.21 894.441 2735.64Z" fill="#0ABBAB"/>
<path d="M782.744 2715.98C768.035 2715.71 758.326 2700.66 763.328 2687.72C764.301 2685.36 765.769 2683.24 767.633 2681.5C800.102 2652.02 827.069 2614.17 841.083 2572.88C847.251 2554.68 852.232 2535.87 856.9 2517.11C865.726 2481.66 874.836 2446.01 883.034 2410.42C892.144 2370.9 900.686 2330.88 910.492 2291.56C914.807 2274.34 919.406 2256.99 924.221 2239.92C939.294 2187 957.828 2134.46 982.765 2085.72C1001.15 2049.76 1023.03 2018.76 1065.44 2010.26C1108.24 2001.68 1155.45 2011.62 1196.41 2021.92C1309.77 2050.45 1420.78 2103.09 1529.37 2149.09C1548.68 2157.26 1570.99 2169.17 1590.97 2167.2C1607.64 2165.55 1623.33 2156.96 1639.29 2148.94C1642.65 2147.26 1646.33 2145.54 1649.9 2145.15C1652.51 2144.75 1655.16 2145.57 1657.08 2147.37C1660.42 2150.52 1662.14 2157.26 1663.5 2163.95C1665.68 2174.73 1667.75 2185.6 1669.77 2196.43C1670.49 2200.22 1671.18 2203.97 1671.92 2207.63C1674.69 2221.47 1676.88 2236.94 1672.57 2250.75C1669.95 2258.86 1665.47 2266.24 1659.49 2272.31C1647.67 2284.98 1629.91 2306.88 1609.48 2302.54C1594.14 2299.28 1579.52 2290.95 1565.28 2284.14C1533.29 2268.87 1500.78 2254.42 1468.58 2239.73C1430.24 2222.23 1391.24 2205.2 1351.89 2190.82C1291.87 2168.9 1219.39 2143.99 1154.11 2155.53C1097.04 2165.68 1059.79 2216.95 1031.17 2262.09C993.425 2321.61 971.478 2389.03 956.013 2458.26C948.845 2490.31 943.667 2523.31 936.332 2555.1C929.968 2582.7 921.505 2610.17 908.678 2634.87C898.86 2653.91 885.212 2670.73 868.589 2684.26C845.878 2702.83 812.409 2716.54 782.744 2715.98Z" fill="#FFD300"/>
<path d="M661.104 2668.72C651.013 2669.7 632.903 2668.81 633 2653.84C633.097 2652.05 633.688 2650.32 634.709 2648.85C657.933 2610.05 690.071 2577.86 708.25 2536.15C716.623 2516.94 723.956 2496.95 730.758 2477.08C743.519 2439.48 755.7 2400.83 766.527 2362.89C778.66 2320.37 787.327 2276.01 796.437 2232.31C800.599 2212.38 804.741 2192.41 809.04 2172.53C822.184 2111.86 836.967 2051.01 857.826 1992.87C872.324 1952.46 887.529 1902.82 924.368 1876.32C962.484 1848.89 1013.8 1854.98 1056.88 1861.73C1203.88 1884.81 1341.45 1954.06 1486.75 1988.3C1515.56 1995.09 1548.15 2004.88 1576.91 1997.61C1600.55 1991.64 1623.12 1978.24 1645.81 1968.74C1650.17 1966.92 1654.93 1965.34 1659.32 1965.11C1662.41 1964.94 1665.27 1965.69 1667.33 1968.22C1670.14 1971.65 1670.98 1978.56 1671 1985.66C1671 1997.49 1670.34 2009.4 1669.23 2021.24C1668.85 2025.38 1668.35 2029.49 1667.89 2033.48C1666.17 2048.47 1663.38 2064.33 1656.58 2077.8C1652.18 2086.17 1646.36 2093.71 1639.39 2100.1C1620.25 2117.54 1599.53 2136.71 1571.66 2135.38C1552.03 2134.4 1532.99 2127.33 1514.49 2121.41C1478.01 2109.74 1442.09 2097.09 1406.52 2083.01C1364.38 2066.35 1322.1 2048.79 1279.64 2033.24C1212.22 2008.56 1135.34 1980.66 1062.05 1983.33C988.162 1986.01 958.233 2046.04 930.189 2104.79C891.514 2185.84 868.712 2273.91 849.188 2362.08C840.982 2399.12 832.206 2436.2 822.812 2472.82C815.372 2501.83 807.038 2531.11 794.866 2557.86C785.954 2577.5 773.889 2595.55 759.146 2611.3C734.164 2638 696.392 2665.42 661.104 2668.72Z" fill="#FE9572"/>
<path d="M532.676 2643.05C519.796 2648.29 501.717 2655.31 488.151 2650.25C487.13 2649.93 486.356 2649.1 486.12 2648.06C484.158 2632.48 506.72 2612.75 515.843 2601.72C533.235 2580.77 551.284 2559.9 565.87 2537.07C578.623 2517.14 590.668 2496.33 601.567 2475.37C622.637 2434.6 640.508 2392.26 655.018 2348.73C669.84 2304.4 681.14 2261.56 686.506 2214.92C688.86 2194.43 690.587 2173.59 692.146 2152.92C696.845 2090.85 699.729 2027.72 711.471 1967.06C720.299 1921.5 732.855 1871.14 757.918 1830.91C784.58 1788.11 828.546 1765.58 875.974 1760.39C1047.88 1741.49 1223.04 1841.99 1395.17 1859.84C1452.88 1865.82 1509.33 1852.33 1562.05 1829.41C1613.31 1807.14 1662.31 1773.17 1715.2 1753.94C1721.41 1751.68 1726.83 1750.42 1730.45 1751.26C1732.98 1751.86 1734.42 1753.82 1733.89 1758.4C1733.27 1763.78 1729.79 1772.71 1725.71 1782.03C1719.07 1797.19 1711.98 1812.33 1704.77 1827.22C1702.3 1832.3 1699.86 1837.2 1697.49 1841.91C1689.39 1858.2 1681.19 1875.31 1670.36 1889.48C1663.64 1898.47 1656 1906.73 1647.58 1914.14C1620.76 1937.22 1591.67 1960.07 1555.09 1963.5C1493.76 1969.25 1422.34 1948.52 1364.9 1931.96C1319.61 1918.91 1274.31 1903.68 1229.08 1889.85C1153.85 1866.92 1074.09 1842.98 994.579 1841.79C958.49 1841.26 924.03 1849.19 897.809 1875.35C872.56 1900.54 859.082 1936.43 845.663 1968.48C805.572 2064.22 780.539 2165.77 755.152 2266.67C744.362 2309.69 730.834 2352.04 718.278 2394.6C708.822 2426.72 699.013 2459.16 685.966 2489.52C676.849 2510.9 665.162 2531.08 651.163 2549.64C620.744 2589.82 578.848 2624.27 532.676 2643.05Z" fill="#EAE9F9"/>
<path d="M378.663 2657.51C361.187 2666.76 341.288 2676.36 321.007 2678.76C319.115 2679 317.203 2679.06 315.299 2678.93C296.185 2678.14 334.659 2643.65 338.15 2640.37C360.216 2619.58 383.665 2599.92 404.338 2577.94C422.452 2558.67 440.105 2538.43 456.385 2517.67C487.356 2478.16 514.708 2435.1 535.823 2389.63C556.937 2344.15 563.969 2300.97 560.997 2251.15C559.723 2229.69 556.928 2207.75 553.652 2186.33C543.629 2120.97 527.467 2055.22 520.004 1989.7C514.61 1942.47 514.58 1894.86 523.485 1847.55C533.449 1794.54 559.262 1753.47 604.816 1728.12C694.571 1678.26 811.472 1701.32 910.612 1723.42C1001.82 1743.74 1100.87 1781.47 1195.38 1774.87C1310.66 1766.83 1426.76 1710.03 1528.46 1660.08C1588.55 1630.57 1647.86 1598.66 1707.18 1567.21C1753.84 1542.46 1801.03 1514.76 1849.8 1496.39C1858.45 1493.13 1868.17 1489.15 1877.6 1489C1882.02 1488.93 1884.84 1490.87 1883.77 1496.13C1882.01 1504.8 1876.44 1513.36 1872 1521.04C1861.74 1538.74 1849.62 1555.91 1837.17 1572.38C1832.72 1578.26 1828.3 1583.91 1823.93 1589.34C1808.9 1608.03 1792.96 1626.41 1775.34 1642.46C1761.84 1654.69 1747.66 1666.14 1732.86 1676.76C1664.14 1726.19 1589.68 1768.82 1510.98 1798.34C1468.29 1814.38 1423.09 1827.54 1376.96 1831.06C1335.5 1834.23 1292.92 1827.38 1252.76 1819.1C1207.36 1809.73 1161.97 1796.98 1116.83 1785.27C1040.93 1765.56 962.962 1746.24 883.897 1746.69C846.287 1746.9 808.069 1754.28 776.764 1776.09C743.067 1799.61 724.512 1833.18 710.831 1869.95C671.867 1974.75 664.012 2087.79 653.037 2200.15C647.712 2254.6 638.101 2305.43 619.958 2356.87C607.209 2392.95 592.586 2429 574.786 2462.58C562.418 2485.77 548.131 2507.9 532.076 2528.72C491.053 2582.05 437.32 2626.48 378.663 2657.51Z" fill="#1DAACC"/>
<path d="M449.233 2259.21C441.62 2168.07 401.888 2078.14 372.585 1990.52C343.86 1904.62 308.121 1791.92 358.369 1713.49C401.604 1646.02 500.747 1628.98 579.642 1633.99C660.98 1639.18 740.15 1661.62 819.614 1678.18C856.619 1685.9 893.987 1692.77 931.756 1695.25C974.49 1698.06 1013.57 1691.33 1054.57 1679.4C1205.84 1635.3 1350.85 1564.6 1490.99 1494.3C1598.97 1440.12 1705.63 1382.48 1812.77 1326.15C1853.75 1304.59 1894.76 1283.03 1936.58 1263.1C1961.62 1251.2 1988.28 1237.26 2015.74 1232.52C2022.7 1231.31 2028.34 1232.06 2028.84 1236.44C2031.33 1258.25 2003.87 1287.94 1989.52 1304.52C1965.29 1332.52 1935.17 1355.91 1904.94 1377.62C1722.14 1508.88 1512.18 1615.02 1300.13 1693.42C1233.61 1718.01 1158.54 1747.84 1086.4 1746.6C1026.29 1745.56 966.858 1731.13 908.565 1717.74C782.011 1688.65 555.018 1635.07 503.17 1794.37C475.584 1879.15 488.219 1977.32 501.512 2067.8C514.001 2152.92 539.214 2247.33 522.654 2332.06C509.469 2399.54 464.645 2465.99 420.234 2517.93C368.847 2577.99 302.332 2625.63 230.776 2659.11C210.782 2668.46 187.894 2678.23 165.399 2678.96C127.139 2680.22 158.385 2648.96 171.285 2637.97C196.527 2616.47 225.242 2599.07 250.749 2578.19C313.83 2526.56 372.31 2467.86 413.111 2397.62C439.109 2352.83 453.569 2311.13 449.233 2259.21Z" fill="#EAE9F9"/>
</g>
<g clip-path="url(#clip1_513_264)">
<path d="M-504.339 220.767C-454.747 353.105 -416.149 490.059 -376.954 625.749C-335.162 770.37 -335.044 922.528 -319.307 1070.3C-309.881 1159.34 -291.4 1245.16 -232.47 1315.94C-191.207 1365.46 -141.722 1398.81 -80.313 1418.05C5.24084 1444.86 98.3104 1445.41 182.179 1476.71C201.59 1483.95 221.227 1493.72 234.113 1510.55C244.803 1524.55 249.899 1542.13 256.983 1557.67C263.294 1571.5 273.935 1577.01 287.428 1578.47C328.584 1582.91 381.448 1558.15 424.171 1550.6C433.196 1549 444.749 1547.31 452.686 1542.55C458.35 1539.15 458.183 1534.32 457.88 1530.11C455.518 1497.46 456.998 1463.2 448.816 1431.03C439.438 1394.15 416.038 1368.64 384.035 1352.61C329.162 1325.16 258.385 1323.12 196.044 1312.24C134.517 1301.45 72.5786 1289.69 13.5993 1268.57C-36.3259 1250.72 -83.1154 1225.43 -122.448 1189.56C-171.717 1144.57 -198.33 1082.43 -214.685 1019.69C-254.86 865.378 -251.528 699.995 -289.881 543.406C-308.959 465.493 -333.133 388.218 -356.974 311.649C-377.385 246.078 -399.168 179.939 -428.594 118.357C-436.874 101.016 -446.976 77.676 -465.408 68.3633C-474.354 63.8443 -483.379 64.6677 -492.012 66.2949C-504.829 68.7162 -517.705 74.4508 -525.397 85.2633C-550.874 121.024 -519.263 185.556 -504.339 220.718" fill="#137D9F"/>
<path d="M-406.444 114.76C-376.035 185.106 -352.178 258.05 -329.705 331.16C-314.942 379.201 -300.757 427.468 -286.494 475.675C-264.727 549.208 -251.622 624.544 -240.959 700.321C-229.384 782.56 -220.045 865.935 -203.467 946.948C-184.652 1038.88 -154.42 1126.59 -79.1811 1188.29C-19.3433 1237.31 54.002 1264.28 128.171 1283.12C174.276 1294.81 221.028 1303.49 267.809 1311.73C311.442 1319.41 357.075 1323.41 398.275 1340.77C453.689 1364.11 479.939 1409.92 506.915 1459.87C516.911 1478.38 533.4 1491.14 551.371 1500.62C594.445 1523.32 644.944 1533.47 693.609 1541.49C699.965 1542.54 706.557 1543.57 713.375 1544.34C726.949 1545.87 740.622 1546.34 754.27 1545.75C755.251 1545.75 756.232 1545.69 757.213 1545.62C766.787 1544.9 778.146 1544.31 786.583 1538.87C791.566 1535.66 791.409 1530.4 790.506 1525.21C772.918 1427.49 748.689 1325.21 662.866 1267.7C611.856 1233.5 547.977 1228.89 487.806 1219.44C418.767 1208.65 349.493 1197.55 281.464 1182.8C197.985 1164.71 111.956 1141.97 37.2083 1098.54C-41.0615 1053.06 -83.0067 984.469 -111.572 901.368C-148.161 794.923 -163.778 681.271 -185.241 570.257C-206.626 459.636 -239.33 352.485 -272.938 245.255C-293.145 180.792 -314.206 115.211 -343.487 55.2284C-352.022 37.7473 -361.9 20.3839 -376.388 6.71673C-386.825 -3.1758 -399.794 -12.9801 -413.968 -16.3331C-423.013 -18.4411 -436.334 -15.5586 -442.102 -7.58771C-452.961 7.39324 -443.2 30.5019 -437.413 45.6496C-428.408 69.1799 -417.156 91.9748 -406.415 114.76" fill="#0ABBAB"/>
<path d="M-337.09 34.4105C-305.944 97.2554 -282.866 163.52 -261.543 230.098C-246.838 276.149 -232.838 322.602 -218.662 368.849C-195.712 443.735 -180.193 520.464 -164.89 597.212C-148.165 681.025 -130.509 765.259 -104.637 846.309C-89.4121 893.987 -70.903 941.576 -44.4333 984.58C-17.3951 1028.48 23.1133 1060.11 67.8763 1084.6C159.05 1134.45 263.615 1158.53 364.709 1178.66C418.874 1189.44 473.372 1198.41 527.889 1207.18C578.731 1215.36 631.337 1219.92 678.158 1242.98C752.421 1279.47 795.145 1350.38 834.643 1419.69C848.035 1443.21 865.603 1463.4 885.308 1481.36C928.542 1520.76 974.295 1552.04 1029.97 1572.17C1036.93 1574.84 1044.05 1577.05 1051.3 1578.78C1063.95 1581.51 1077.27 1583.35 1090.33 1580.74C1091.09 1580.6 1091.84 1580.41 1092.56 1580.22C1102.06 1577.71 1106.28 1572.66 1108.49 1565.41C1109.91 1560.75 1108.18 1554.45 1105.72 1547.94C1060.63 1428.64 1016.31 1293.63 910.836 1216.15C856.387 1176.15 790.958 1170.61 725.078 1161.11C643.277 1149.35 561.28 1137.53 480.185 1122.61C376.405 1103.52 269.242 1081.53 172.726 1036.78C126.649 1015.4 83.0621 986 52.6514 944.594C26.623 909.134 6.87854 868.325 -9.85614 828.085C-52.933 724.46 -79.0105 614.173 -106.755 505.11C-133.303 400.682 -166.449 298.763 -200.516 196.726C-219.613 139.534 -238.995 81.2159 -266.004 28.1985C-274.347 11.8063 -284.317 -4.00779 -296.738 -18.0093C-311.934 -35.1363 -329.178 -54.6639 -349.442 -63.7761C-357.628 -67.4504 -370.549 -72.9863 -378.853 -68.0382C-397.97 -56.6823 -345.256 19.0863 -337.07 34.5085" fill="#B2CD0D"/>
<path d="M-262.539 -1.10234C-229.882 55.3895 -206.359 116.039 -184.944 177.365C-169.248 222.257 -154.406 267.796 -139.594 312.952C-114.775 388.595 -96.8819 466.807 -76.7229 543.842C-53.9741 630.791 -27.1445 717.318 7.64087 799.963C27.1034 846.168 49.1459 892.677 78.7222 933.735C112.752 980.96 161.556 1012.81 214.42 1035.47C326.251 1083.39 449.638 1105.23 568.974 1125.13C631.638 1135.57 694.538 1144.6 757.409 1153.56C805.948 1160.49 858.106 1163.05 903.79 1182.07C993.794 1219.56 1049.66 1307.59 1097.16 1387.82C1112.13 1413.13 1128.47 1437.61 1145.77 1461.46C1178.47 1506.57 1213.1 1564.22 1264.67 1589.44C1269.58 1591.86 1274.82 1594.27 1279.83 1595.32C1290.41 1597.62 1298.47 1593.82 1302.5 1587.65C1302.85 1587.15 1303.18 1586.64 1303.48 1586.1C1307.46 1578.31 1305.92 1565.93 1304.31 1557.92C1302.72 1550.81 1300.31 1543.9 1297.14 1537.33C1235.58 1405.93 1158.31 1262.71 1038.16 1180.13C984.397 1143.18 924.371 1136.61 859.685 1128.21C777.794 1117.57 695.5 1108.86 613.902 1097.35C509.164 1082.57 400.521 1065.87 302.355 1024.05C206.72 983.294 149.401 908.848 111.761 815.24C71.3257 714.671 50.3132 607.002 22.7969 501.902C-3.66 401.097 -41.6923 305.087 -79.5285 208.303C-100.541 154.567 -122.279 99.8594 -151.042 50.771C-160.577 34.6928 -171.825 19.6938 -184.591 6.03639C-208.389 -19.7041 -234.464 -44.8269 -264.393 -63.213C-277.048 -70.9891 -291.095 -79.6771 -305.457 -83.521C-322.133 -87.9827 -301.964 -59.8986 -299.502 -56.2214C-287.191 -37.8353 -274.124 -19.9983 -262.578 -1.10234" fill="#EAE9F9"/>
<path d="M-152.449 10.4288C-112.624 63.5492 -80.8288 121.306 -54.2002 181.641C-35.1014 224.939 -19.1301 270.443 -2.11957 314.212C26.4797 387.731 40.5783 467.711 57.2065 545.475C75.9426 633.111 96.2179 722.01 128.258 805.245C146.073 851.483 166.495 896.566 200.154 934.188C236.802 975.143 283.079 1003.04 334.238 1022.2C439.536 1061.54 554.414 1074.29 665.468 1086.44C723.676 1092.84 781.992 1098.29 840.191 1104.79C889.212 1110.27 942.724 1112.32 989.422 1129.3C1081.83 1162.84 1154.88 1244.85 1217.02 1317.39C1237.99 1341.9 1259.55 1365.98 1281.05 1389.93C1332.15 1446.79 1379.69 1523.5 1456.39 1548.17C1464.24 1550.69 1472.65 1552.91 1481.02 1553C1495.41 1553.14 1513.02 1547.05 1520.89 1533.84C1521.43 1532.97 1521.91 1532.06 1522.34 1531.13C1528.6 1516.95 1522.49 1501.61 1517.52 1488C1514.49 1479.7 1509.1 1471.18 1503.9 1464.08C1446.89 1386.29 1376.24 1315.17 1303.02 1251.25C1225.84 1183.8 1142.63 1120.19 1052.8 1072.33C1022.17 1056.02 989.775 1040.61 955.735 1031.91C924.037 1023.81 889.85 1022.5 857.309 1020.35C782.865 1015.45 708.038 1015.22 633.643 1012.51C539.903 1009.17 441.478 1005.15 352.141 973.301C307.344 957.332 266.029 931.492 234.4 895.693C205.154 862.58 191.683 818.654 183.731 776.17C165.142 677.016 173.015 574.158 167.446 473.387C164.672 423.129 159.123 372.616 145.749 323.975C133.455 279.246 112.63 237.448 91.6883 196.473C65.2166 144.636 35.5977 93.0747 -0.550903 48.3257C-12.7117 33.4193 -26.4527 19.8747 -41.533 7.92916C-75.7011 -19.3613 -112.722 -45.6617 -154.008 -61.0126C-168.931 -66.5609 -185.49 -71.0897 -200.765 -72.8248C-222.933 -75.3538 -202.922 -49.769 -198 -43.613C-183.294 -25.2135 -167.068 -8.07852 -152.449 10.3994" fill="#FE9572"/>
<path d="M-22.6924 -18.9501C30.0843 29.843 77.1244 83.743 114.309 144.543C138.727 184.466 162.359 228.388 174.813 273.015C195.877 348.489 190.503 431.804 188.542 511.061C186.375 598.453 183.237 687.286 197.661 772.297C205.448 818.179 222.589 860.513 257.871 893.133C290.996 923.783 331.094 944.357 374.3 956.658C465.242 982.535 563.146 980.31 656.805 979.261C707.12 978.693 757.445 977.575 807.76 978.458C853.045 979.251 901.331 979.026 945.537 989.926C1068.64 1020.31 1183.1 1099.88 1285.81 1170.6C1322.03 1195.55 1358.66 1220.35 1394.56 1245.67C1452.42 1286.48 1507.33 1331.78 1564.86 1373.34C1614.59 1409.27 1668.56 1441.55 1729.11 1453.98C1742.18 1456.67 1756.31 1458.98 1769.14 1457.58C1787.13 1455.62 1813.81 1449.04 1816.79 1426.33C1816.97 1425.03 1817.04 1423.72 1816.98 1422.41C1816 1399.99 1794.5 1379.72 1780.14 1364.9C1771.02 1355.63 1761.39 1346.87 1751.32 1338.64C1647.97 1252.92 1530.39 1180.53 1413.14 1113.2C1293.29 1044.49 1169.35 979.614 1041.27 929.645C969.944 901.818 901.586 882.851 824.323 883.577C759.367 884.214 694.607 892.212 630.161 898.279C550.271 905.807 465.075 914.05 386.773 890.84C345.175 878.509 306.421 854.74 277.297 822.453C247.879 789.911 239.475 745.107 239.828 703.567C240.661 604.844 275.463 505.572 293.399 406.868C301.901 360.084 308.226 312.153 304.705 264.527C301.283 218.262 284.622 178.614 263.902 138.084C235.729 82.9196 202.388 29.1373 162.193 -17.2054C148.624 -32.8033 133.386 -46.8678 116.751 -59.1471C72.6233 -91.8066 21.8569 -120.751 -34.6166 -125.397C-52.454 -126.867 -73.3509 -126.074 -89.6389 -118.173C-135.747 -95.8155 -39.2157 -33.5743 -22.6924 -18.9501Z" fill="#F75F68"/>
<path d="M108.997 -116.529C170.21 -63.7475 227.304 -6.19206 270.461 61.3531C296.492 102.106 322.857 148.819 330.125 196.13C342.601 277.292 316.305 365.237 296.109 446.007C274.325 533.11 241.752 628.35 250.991 716.188C255.542 759.646 272.57 794.771 308.38 823.113C339.948 847.975 377.308 864.431 416.967 870.944C493.472 883.766 573.086 868.679 648.668 856.239C727.949 843.239 810.074 827.436 890.688 836.436C947.841 842.808 1003.99 865.365 1057.17 886.07C1137.33 917.284 1215.66 953.341 1292.83 990.966C1342.1 1014.97 1391.49 1039.38 1440.14 1064.66C1536.86 1114.9 1631.24 1170.08 1726.96 1222.55C1797.65 1261.3 1872.66 1303.48 1951.94 1320.18C1962.95 1322.5 1975.13 1324.18 1986.14 1321.96C2009.4 1317.24 2000.07 1287.18 1993.33 1274.71C1992.31 1272.92 1991.2 1271.19 1989.99 1269.53C1969.66 1240.62 1938.42 1218.55 1909.64 1199.17C1896.22 1190.11 1882.12 1181.33 1868.18 1172.81C1735.77 1091.85 1596.35 1020.2 1455.86 953.076C1326.03 891.04 1193.64 830.858 1057.64 784.625C990.271 761.724 927.028 744.059 855.329 749.451C796.705 753.862 738.993 767.008 681.556 778.39C609.68 792.634 532.656 807.977 459.663 791.556C420.331 782.733 382.413 761.999 354.076 733.246C322.592 701.306 314.274 657.897 316.128 615.958C320.503 517.327 364.591 418.401 394.8 321.701C409.768 273.831 423.921 224.697 428.149 174.513C431.876 130.673 424.147 93.0865 405.119 54.2653C378.791 0.524063 344.619 -49.0077 303.721 -92.7067C289.35 -107.875 274.017 -122.103 257.818 -135.302C206.079 -177.78 144.934 -215.17 79.0128 -231.463C62.3878 -235.561 40.0739 -239.218 24.0864 -231.414C-25.5239 -207.2 92.5581 -130.283 109.007 -116.529" fill="#7158D1"/>
<path d="M894.441 -335.638C953.107 -296.1 970.389 -240.153 981.606 -173.608C995.345 -92.323 1015.79 -12.6671 1051.65 61.1498C1075.2 109.717 1106.36 170.609 1152.5 202.464C1205.82 239.264 1284.93 221.168 1341.22 204.956C1424.94 180.845 1511.76 142.876 1587.28 96.92C1616.92 78.8828 1633.74 69.1871 1662.73 90.2468C1666.85 93.1908 1672.07 97.4008 1677.72 94.447C1682.07 92.1801 1685.57 86.1742 1688.98 80.5609C1696.38 68.1501 1704.75 56.3379 1714 45.2324C1722.41 35.2423 1733 22.6124 1733 8.69687C1733 -0.439484 1728.53 -6.86728 1724.76 -11.6661C1718.18 -20.037 1703.75 -44.9435 1689.98 -39.3204C1678.34 -34.5609 1667.64 -24.4923 1656.61 -17.1911C1627.62 2.05313 1596.65 18.9029 1565.89 34.3591C1462.56 86.3018 1313.19 148.941 1208.59 65.4384C1135.37 6.96973 1086.61 -70.2917 1069.48 -161.253C1058.01 -222.185 1050.76 -282.94 1018.3 -336.914C1006.14 -357.12 989.84 -373.567 969.761 -384.745C949.27 -396.128 918.563 -400.957 896.571 -389.249C877.463 -379.043 877.562 -348.209 894.441 -335.638Z" fill="#0ABBAB"/>
<path d="M782.744 -315.984C768.035 -315.709 758.326 -300.656 763.328 -287.719C764.301 -285.362 765.769 -283.24 767.633 -281.496C800.102 -252.017 827.069 -214.168 841.083 -172.88C847.251 -154.681 852.232 -135.874 856.9 -117.106C865.726 -81.6587 874.836 -46.0052 883.034 -10.4203C892.144 29.1042 900.686 69.1188 910.492 108.438C914.807 125.657 919.406 143.013 924.221 160.075C939.294 212.997 957.828 265.536 982.765 314.283C1001.15 350.24 1023.03 381.238 1065.44 389.745C1108.24 398.32 1155.45 388.383 1196.41 378.083C1309.77 349.554 1420.78 296.907 1529.37 250.914C1548.68 242.741 1570.99 230.833 1590.97 232.803C1607.64 234.45 1623.33 243.044 1639.29 251.061C1642.65 252.737 1646.33 254.462 1649.9 254.854C1652.51 255.252 1655.16 254.432 1657.08 252.629C1660.42 249.483 1662.14 242.741 1663.5 236.047C1665.68 225.267 1667.75 214.398 1669.77 203.569C1670.49 199.776 1671.18 196.032 1671.92 192.367C1674.69 178.529 1676.88 163.064 1672.57 149.246C1669.95 141.139 1665.47 133.755 1659.49 127.685C1647.67 115.023 1629.91 93.1197 1609.48 97.4612C1594.14 100.725 1579.52 109.055 1565.28 115.856C1533.29 131.125 1500.78 145.581 1468.58 160.271C1430.24 177.775 1391.24 194.798 1351.89 209.185C1291.87 231.098 1219.39 256.01 1154.11 244.466C1097.04 234.322 1059.79 183.047 1031.17 137.907C993.425 78.3898 971.478 10.9737 956.013 -58.2556C948.845 -90.3123 943.667 -123.31 936.332 -155.102C929.968 -182.7 921.505 -210.17 908.678 -234.867C898.86 -253.913 885.212 -270.729 868.589 -284.26C845.878 -302.832 812.409 -316.542 782.744 -315.984Z" fill="#FFD300"/>
<path d="M661.104 -268.722C651.013 -269.702 632.903 -268.811 633 -253.837C633.097 -252.048 633.688 -250.322 634.709 -248.849C657.933 -210.052 690.071 -177.86 708.25 -136.153C716.623 -116.936 723.956 -96.9545 730.758 -77.0808C743.519 -39.4796 755.7 -0.829865 766.527 37.1143C778.66 79.6251 787.327 123.988 796.437 167.694C800.599 187.617 804.741 207.589 809.04 227.472C822.184 288.142 836.967 348.988 857.826 407.129C872.324 447.543 887.529 497.178 924.368 523.676C962.484 551.115 1013.8 545.02 1056.88 538.268C1203.88 515.19 1341.45 445.935 1486.75 411.696C1515.56 404.914 1548.15 395.124 1576.91 402.386C1600.55 408.364 1623.12 421.76 1645.81 431.256C1650.17 433.078 1654.93 434.656 1659.32 434.891C1662.41 435.058 1665.27 434.313 1667.33 431.785C1670.14 428.355 1670.98 421.436 1671 414.341C1671 402.513 1670.34 390.597 1669.23 378.759C1668.85 374.624 1668.35 370.508 1667.89 366.519C1666.17 351.526 1663.38 335.67 1656.58 322.195C1652.18 313.833 1646.36 306.292 1639.39 299.901C1620.25 282.458 1599.53 263.29 1571.66 264.623C1552.03 265.603 1532.99 272.668 1514.49 278.587C1478.01 290.258 1442.09 302.91 1406.52 316.992C1364.38 333.651 1322.1 351.212 1279.64 366.764C1212.22 391.44 1135.34 419.339 1062.05 416.674C988.162 413.989 958.233 353.956 930.189 295.207C891.514 214.164 868.712 126.085 849.188 37.9179C840.982 0.875244 832.206 -36.1968 822.812 -72.818C815.372 -101.835 807.038 -131.106 794.866 -157.859C785.954 -177.495 773.889 -195.546 759.146 -211.297C734.164 -238.001 696.392 -265.42 661.104 -268.722Z" fill="#FE9572"/>
<path d="M532.676 -243.052C519.796 -248.292 501.717 -255.314 488.151 -250.251C487.13 -249.934 486.356 -249.098 486.12 -248.057C484.158 -232.483 506.72 -212.747 515.843 -201.718C533.235 -180.768 551.284 -159.895 565.87 -137.074C578.623 -117.142 590.668 -96.3283 601.567 -75.3679C622.637 -34.6002 640.508 7.73834 655.018 51.2666C669.84 95.597 681.14 138.439 686.506 185.081C688.86 205.571 690.587 226.414 692.146 247.08C696.845 309.149 699.729 372.285 711.471 432.943C720.299 478.497 732.855 528.861 757.918 569.088C784.58 611.89 828.546 634.418 875.974 639.609C1047.88 658.513 1223.04 558.01 1395.17 540.164C1452.88 534.18 1509.33 547.667 1562.05 570.586C1613.31 592.859 1662.31 626.827 1715.2 646.064C1721.41 648.316 1726.83 649.58 1730.45 648.738C1732.98 648.14 1734.42 646.181 1733.89 641.597C1733.27 636.22 1729.79 627.287 1725.71 617.973C1719.07 602.811 1711.98 587.668 1704.77 572.78C1702.3 567.697 1699.86 562.8 1697.49 558.089C1689.39 541.8 1681.19 524.689 1670.36 510.516C1663.64 501.534 1656 493.272 1647.58 485.863C1620.76 462.777 1591.67 439.926 1555.09 436.498C1493.76 430.749 1422.34 451.484 1364.9 468.037C1319.61 481.093 1274.31 496.324 1229.08 510.154C1153.85 533.083 1074.09 557.021 994.579 558.206C958.49 558.745 924.03 550.811 897.809 524.65C872.56 499.458 859.082 463.571 845.663 431.523C805.572 335.78 780.539 234.23 755.152 133.326C744.362 90.3079 730.834 47.956 718.278 5.39847C708.822 -26.718 699.013 -59.1578 685.966 -89.5211C676.849 -110.896 665.162 -131.084 651.163 -149.64C620.744 -189.818 578.848 -224.265 532.676 -243.052Z" fill="#EAE9F9"/>
<path d="M378.663 -257.513C361.187 -266.764 341.288 -276.358 321.007 -278.759C319.115 -279 317.203 -279.065 315.299 -278.926C296.185 -278.142 334.659 -243.646 338.15 -240.373C360.216 -219.578 383.665 -199.92 404.338 -177.939C422.452 -158.672 440.105 -138.426 456.385 -117.67C487.356 -78.1568 514.708 -35.0964 535.823 10.3748C556.937 55.846 563.969 99.0338 560.997 148.846C559.723 170.308 556.928 192.25 553.652 213.672C543.629 279.027 527.467 344.784 520.004 410.296C514.61 457.531 514.58 505.138 523.485 552.452C533.449 605.459 559.262 646.53 604.816 671.882C694.571 721.744 811.472 698.675 910.612 676.576C1001.82 656.261 1100.87 618.532 1195.38 625.127C1310.66 633.173 1426.76 689.973 1528.46 739.923C1588.55 769.43 1647.86 801.338 1707.18 832.786C1753.84 857.54 1801.03 885.244 1849.8 903.609C1858.45 906.872 1868.17 910.851 1877.6 911C1882.02 911.067 1884.84 909.126 1883.77 903.874C1882.01 895.201 1876.44 886.636 1872 878.963C1861.74 861.264 1849.62 844.095 1837.17 827.621C1832.72 821.741 1828.3 816.087 1823.93 810.658C1808.9 791.969 1792.96 773.585 1775.34 757.543C1761.84 745.311 1747.66 733.859 1732.86 723.243C1664.14 673.813 1589.68 631.184 1510.98 601.657C1468.29 585.624 1423.09 572.463 1376.96 568.935C1335.5 565.77 1292.92 572.62 1252.76 580.901C1207.36 590.27 1161.97 603.019 1116.83 614.73C1040.93 634.437 962.962 653.763 883.897 653.312C846.287 653.096 808.069 645.717 776.764 623.912C743.067 600.393 724.512 566.818 710.831 530.05C671.867 425.25 664.012 312.209 653.037 199.854C647.712 145.397 638.101 94.5749 619.958 43.1258C607.209 7.05267 592.586 -29.0009 574.786 -62.5751C562.418 -85.7746 548.131 -107.901 532.076 -128.724C491.053 -182.054 437.32 -226.477 378.663 -257.513Z" fill="#1DAACC"/>
<path d="M449.233 140.791C441.62 231.933 401.888 321.86 372.585 409.484C343.86 495.383 308.121 608.076 358.369 686.507C401.604 753.982 500.747 771.024 579.642 766.006C660.98 760.822 740.15 738.38 819.614 721.817C856.619 714.104 893.987 707.234 931.756 704.745C974.49 701.942 1013.57 708.665 1054.57 720.602C1205.84 764.703 1350.85 835.402 1490.99 905.699C1598.97 959.885 1705.63 1017.52 1812.77 1073.85C1853.75 1095.41 1894.76 1116.97 1936.58 1136.9C1961.62 1148.8 1988.28 1162.74 2015.74 1167.48C2022.7 1168.69 2028.34 1167.94 2028.84 1163.56C2031.33 1141.75 2003.87 1112.06 1989.52 1095.48C1965.29 1067.48 1935.17 1044.09 1904.94 1022.38C1722.14 891.116 1512.18 784.98 1300.13 706.578C1233.61 681.989 1158.54 652.157 1086.4 653.402C1026.29 654.441 966.858 668.867 908.565 682.264C782.011 711.351 555.018 764.928 503.17 605.626C475.584 520.854 488.219 422.685 501.512 332.199C514.001 247.084 539.214 152.669 522.654 67.9357C509.469 0.461029 464.645 -65.9944 420.234 -117.926C368.847 -177.991 302.332 -225.63 230.776 -259.108C210.782 -268.457 187.894 -278.228 165.399 -278.963C127.139 -280.218 158.385 -248.965 171.285 -237.969C196.527 -216.467 225.242 -199.072 250.749 -178.187C313.83 -126.56 372.31 -67.8564 413.111 2.3819C439.109 47.169 453.569 88.869 449.233 140.791Z" fill="#EAE9F9"/>
</g>
<defs>
<clipPath id="clip0_513_264">
<rect width="1600" height="1200" fill="white" transform="matrix(1 0 0 -1 -53 2400)"/>
</clipPath>
<clipPath id="clip1_513_264">
<rect width="1600" height="1200" fill="white" transform="translate(-53)"/>
</clipPath>
</defs>
</svg>
