<svg width="192" height="48" viewBox="0 0 192 48" fill="none" xmlns="http://www.w3.org/2000/svg">
<path d="M4.61719 14.7109C6.53906 12.3516 9.03906 11.1719 12.1172 11.1719C17.4766 11.1719 20.1797 14.1953 20.2266 20.2422V37H15.8906V20.2188C15.875 18.3906 15.4531 17.0391 14.625 16.1641C13.8125 15.2891 12.5391 14.8516 10.8047 14.8516C9.39844 14.8516 8.16406 15.2266 7.10156 15.9766C6.03906 16.7266 5.21094 17.7109 4.61719 18.9297V37H0.28125V1H4.61719V14.7109ZM42.375 37C42.125 36.5 41.9219 35.6094 41.7656 34.3281C39.75 36.4219 37.3438 37.4688 34.5469 37.4688C32.0469 37.4688 29.9922 36.7656 28.3828 35.3594C26.7891 33.9375 25.9922 32.1406 25.9922 29.9688C25.9922 27.3281 26.9922 25.2812 28.9922 23.8281C31.0078 22.3594 33.8359 21.625 37.4766 21.625H41.6953V19.6328C41.6953 18.1172 41.2422 16.9141 40.3359 16.0234C39.4297 15.1172 38.0938 14.6641 36.3281 14.6641C34.7812 14.6641 33.4844 15.0547 32.4375 15.8359C31.3906 16.6172 30.8672 17.5625 30.8672 18.6719H26.5078C26.5078 17.4062 26.9531 16.1875 27.8438 15.0156C28.75 13.8281 29.9688 12.8906 31.5 12.2031C33.0469 11.5156 34.7422 11.1719 36.5859 11.1719C39.5078 11.1719 41.7969 11.9062 43.4531 13.375C45.1094 14.8281 45.9688 16.8359 46.0312 19.3984V31.0703C46.0312 33.3984 46.3281 35.25 46.9219 36.625V37H42.375ZM35.1797 33.6953C36.5391 33.6953 37.8281 33.3438 39.0469 32.6406C40.2656 31.9375 41.1484 31.0234 41.6953 29.8984V24.6953H38.2969C32.9844 24.6953 30.3281 26.25 30.3281 29.3594C30.3281 30.7188 30.7812 31.7812 31.6875 32.5469C32.5938 33.3125 33.7578 33.6953 35.1797 33.6953ZM60.75 30.6484L66.6562 11.6406H71.2969L61.1016 40.9141C59.5234 45.1328 57.0156 47.2422 53.5781 47.2422L52.7578 47.1719L51.1406 46.8672V43.3516L52.3125 43.4453C53.7812 43.4453 54.9219 43.1484 55.7344 42.5547C56.5625 41.9609 57.2422 40.875 57.7734 39.2969L58.7344 36.7188L49.6875 11.6406H54.4219L60.75 30.6484ZM90.4688 37C90.2188 36.5 90.0156 35.6094 89.8594 34.3281C87.8438 36.4219 85.4375 37.4688 82.6406 37.4688C80.1406 37.4688 78.0859 36.7656 76.4766 35.3594C74.8828 33.9375 74.0859 32.1406 74.0859 29.9688C74.0859 27.3281 75.0859 25.2812 77.0859 23.8281C79.1016 22.3594 81.9297 21.625 85.5703 21.625H89.7891V19.6328C89.7891 18.1172 89.3359 16.9141 88.4297 16.0234C87.5234 15.1172 86.1875 14.6641 84.4219 14.6641C82.875 14.6641 81.5781 15.0547 80.5312 15.8359C79.4844 16.6172 78.9609 17.5625 78.9609 18.6719H74.6016C74.6016 17.4062 75.0469 16.1875 75.9375 15.0156C76.8438 13.8281 78.0625 12.8906 79.5938 12.2031C81.1406 11.5156 82.8359 11.1719 84.6797 11.1719C87.6016 11.1719 89.8906 11.9062 91.5469 13.375C93.2031 14.8281 94.0625 16.8359 94.125 19.3984V31.0703C94.125 33.3984 94.4219 35.25 95.0156 36.625V37H90.4688ZM83.2734 33.6953C84.6328 33.6953 85.9219 33.3438 87.1406 32.6406C88.3594 31.9375 89.2422 31.0234 89.7891 29.8984V24.6953H86.3906C81.0781 24.6953 78.4219 26.25 78.4219 29.3594C78.4219 30.7188 78.875 31.7812 79.7812 32.5469C80.6875 33.3125 81.8516 33.6953 83.2734 33.6953ZM99.7734 24.0859C99.7734 21.6016 100.258 19.3672 101.227 17.3828C102.211 15.3984 103.57 13.8672 105.305 12.7891C107.055 11.7109 109.047 11.1719 111.281 11.1719C114.734 11.1719 117.523 12.3672 119.648 14.7578C121.789 17.1484 122.859 20.3281 122.859 24.2969V24.6016C122.859 27.0703 122.383 29.2891 121.43 31.2578C120.492 33.2109 119.141 34.7344 117.375 35.8281C115.625 36.9219 113.609 37.4688 111.328 37.4688C107.891 37.4688 105.102 36.2734 102.961 33.8828C100.836 31.4922 99.7734 28.3281 99.7734 24.3906V24.0859ZM104.133 24.6016C104.133 27.4141 104.781 29.6719 106.078 31.375C107.391 33.0781 109.141 33.9297 111.328 33.9297C113.531 33.9297 115.281 33.0703 116.578 31.3516C117.875 29.6172 118.523 27.1953 118.523 24.0859C118.523 21.3047 117.859 19.0547 116.531 17.3359C115.219 15.6016 113.469 14.7344 111.281 14.7344C109.141 14.7344 107.414 15.5859 106.102 17.2891C104.789 18.9922 104.133 21.4297 104.133 24.6016ZM130.43 37V14.9922H126.422V11.6406H130.43V9.03906C130.43 6.32031 131.156 4.21875 132.609 2.73438C134.062 1.25 136.117 0.507812 138.773 0.507812C139.773 0.507812 140.766 0.640625 141.75 0.90625L141.516 4.42188C140.781 4.28125 140 4.21094 139.172 4.21094C137.766 4.21094 136.68 4.625 135.914 5.45312C135.148 6.26563 134.766 7.4375 134.766 8.96875V11.6406H140.18V14.9922H134.766V37H130.43ZM160.641 37C160.391 36.5 160.188 35.6094 160.031 34.3281C158.016 36.4219 155.609 37.4688 152.812 37.4688C150.312 37.4688 148.258 36.7656 146.648 35.3594C145.055 33.9375 144.258 32.1406 144.258 29.9688C144.258 27.3281 145.258 25.2812 147.258 23.8281C149.273 22.3594 152.102 21.625 155.742 21.625H159.961V19.6328C159.961 18.1172 159.508 16.9141 158.602 16.0234C157.695 15.1172 156.359 14.6641 154.594 14.6641C153.047 14.6641 151.75 15.0547 150.703 15.8359C149.656 16.6172 149.133 17.5625 149.133 18.6719H144.773C144.773 17.4062 145.219 16.1875 146.109 15.0156C147.016 13.8281 148.234 12.8906 149.766 12.2031C151.312 11.5156 153.008 11.1719 154.852 11.1719C157.773 11.1719 160.062 11.9062 161.719 13.375C163.375 14.8281 164.234 16.8359 164.297 19.3984V31.0703C164.297 33.3984 164.594 35.25 165.188 36.625V37H160.641ZM153.445 33.6953C154.805 33.6953 156.094 33.3438 157.312 32.6406C158.531 31.9375 159.414 31.0234 159.961 29.8984V24.6953H156.562C151.25 24.6953 148.594 26.25 148.594 29.3594C148.594 30.7188 149.047 31.7812 149.953 32.5469C150.859 33.3125 152.023 33.6953 153.445 33.6953ZM175.195 11.6406L175.336 14.8281C177.273 12.3906 179.805 11.1719 182.93 11.1719C188.289 11.1719 190.992 14.1953 191.039 20.2422V37H186.703V20.2188C186.688 18.3906 186.266 17.0391 185.438 16.1641C184.625 15.2891 183.352 14.8516 181.617 14.8516C180.211 14.8516 178.977 15.2266 177.914 15.9766C176.852 16.7266 176.023 17.7109 175.43 18.9297V37H171.094V11.6406H175.195Z" fill="black"/>
</svg>
